<?xml version="1.0" encoding="iso-8859-1"?>
<!-- Generator: Adobe Illustrator 19.0.0, SVG Export Plug-In . SVG Version: 6.00 Build 0)  -->
<svg version="1.1" id="Capa_1" xmlns="http://www.w3.org/2000/svg" xmlns:xlink="http://www.w3.org/1999/xlink" x="0px" y="0px"
	 viewBox="0 0 512.017 512.017" style="enable-background:new 0 0 512.017 512.017;" xml:space="preserve">
<g transform="translate(-1)">
	<g transform="translate(2 1)">
		<path style="fill:#E7EBF4;" d="M502.476,58.737v426.667c-0.028,9.414-7.652,17.039-17.067,17.067H24.61
			c-9.414-0.028-17.039-7.652-17.067-17.067V58.737H502.476z"/>
		<path style="fill:#F0F7FF;" d="M476.876,58.737v426.667c-0.028,9.414-7.652,17.039-17.067,17.067H24.61
			c-9.414-0.028-17.039-7.652-17.067-17.067V58.737H476.876z"/>
		<path style="fill:#B2CDF8;" d="M502.476,24.604v51.2H7.543v-51.2C7.57,15.189,15.195,7.564,24.61,7.537h460.8
			C494.824,7.564,502.449,15.189,502.476,24.604z"/>
		<g>
			<path style="fill:#E7EBF4;" d="M476.876,24.604v51.2H7.543v-51.2C7.57,15.189,15.195,7.564,24.61,7.537h435.2
				C469.224,7.564,476.849,15.189,476.876,24.604z"/>
			<circle style="fill:#E7EBF4;" cx="75.81" cy="152.604" r="34.133"/>
			<circle style="fill:#E7EBF4;" cx="434.21" cy="425.67" r="34.133"/>
			<path style="fill:#E7EBF4;" d="M220.876,118.47H357.41c4.713,0,8.533,3.82,8.533,8.533v51.2c0,4.713-3.821,8.533-8.533,8.533
				H220.876c-4.713,0-8.533-3.821-8.533-8.533v-51.2C212.343,122.291,216.163,118.47,220.876,118.47z"/>
			<path style="fill:#E7EBF4;" d="M101.41,237.937h136.533c4.713,0,8.533,3.821,8.533,8.533v51.2c0,4.713-3.821,8.533-8.533,8.533
				H101.41c-4.713,0-8.533-3.821-8.533-8.533v-51.2C92.876,241.757,96.697,237.937,101.41,237.937z"/>
			<polygon style="fill:#E7EBF4;" points="212.343,459.804 92.876,459.804 127.01,391.537 246.476,391.537 			"/>
		</g>
		<path style="fill:#FFFFFF;" d="M24.61,502.47h25.6c-9.414-0.028-17.039-7.652-17.067-17.067v-460.8
			C33.17,15.189,40.795,7.564,50.21,7.537h-25.6C15.195,7.564,7.57,15.189,7.543,24.604v460.8
			C7.571,494.818,15.195,502.443,24.61,502.47z"/>
	</g>
	<g>
		<path style="fill:#FFFFFF;" d="M26.61,512.004c-7.03-0.002-13.749-2.899-18.577-8.009c-4.686-5.011-7.209-11.666-7.023-18.523
			V28.628l0.033-3.872c0.05-1.796,0.298-3.581,0.738-5.323C4.467,8.609,13.86,0.774,24.99,0.075l58.018-0.071h404.181l2.572,0.115
			c1.791,0.176,3.561,0.526,5.284,1.046c10.63,3.354,17.884,13.179,17.96,24.324l0.004,28.78v431.126
			c0.077,3.432-0.49,6.849-1.674,10.071c-1.277,3.371-3.248,6.437-5.785,8.997c-5.064,5.009-11.954,7.732-19.073,7.54H26.61v-17.067
			h459.868c2.596,0.265,5.173-0.658,7.011-2.511c1.838-1.853,2.74-4.437,2.455-7.031V54.269l-0.004-28.704
			c-0.043-3.707-2.451-6.972-5.981-8.109c-0.574-0.161-1.16-0.276-1.753-0.342l-1.016-0.044H83.009l-56.946,0.038
			c-2.426,0.14-4.672,1.322-6.16,3.243c-0.736,0.943-1.266,2.029-1.556,3.19c-0.152,0.58-0.235,1.176-0.246,1.776l-0.024,3.311
			v456.843c-0.237,2.414,0.553,4.816,2.177,6.617c1.624,1.801,3.931,2.835,6.357,2.849V512.004z"/>
		<g>
			<path style="fill:#51A1FF;" d="M504.358,6.441c-2.699-2.394-5.872-4.191-9.313-5.276c-1.723-0.52-3.493-0.871-5.284-1.046
				l-2.572-0.115H83.009L24.99,0.075C13.86,0.774,4.467,8.609,1.781,19.433c-0.441,1.742-0.688,3.527-0.738,5.323L1.01,28.628
				v382.176c0,4.713,3.821,8.533,8.533,8.533s8.533-3.82,8.533-8.533V85.337h477.867v400.058c0.285,2.594-0.617,5.178-2.455,7.031
				c-1.838,1.853-4.415,2.775-7.011,2.511H26.61c-2.905-0.011-5.606-1.493-7.176-3.938c-0.775-1.195-1.229-2.569-1.318-3.99
				l-0.04-7.938c0-4.713-3.821-8.533-8.533-8.533s-8.533,3.82-8.533,8.533v4.267c0.027,1.597-0.066,2.401,0.081,4.859
				c0.29,4.284,1.662,8.424,3.988,12.033c4.717,7.321,12.822,11.753,21.531,11.774h459.868c7.12,0.192,14.01-2.531,19.073-7.54
				c2.537-2.561,4.508-5.626,5.785-8.997c1.184-3.223,1.751-6.639,1.674-10.071V54.269l-0.004-28.78
				C512.96,18.2,509.816,11.274,504.358,6.441z M18.076,68.27V28.628l0.024-3.311c0.011-0.6,0.094-1.196,0.246-1.776
				c0.29-1.16,0.82-2.247,1.556-3.19c1.488-1.921,3.734-3.104,6.16-3.243l56.946-0.038h404.181l1.016,0.044
				c0.593,0.066,1.179,0.181,1.753,0.342c3.529,1.136,5.937,4.401,5.981,8.109l0.004,28.704V68.27H18.076z"/>
			<path style="fill:#51A1FF;" d="M6.301,452.792c0.484,0.245,1.002,0.417,1.537,0.508c0.563,0.096,1.133,0.153,1.704,0.171
				c2.259-0.031,4.423-0.915,6.059-2.475c3.221-3.397,3.221-8.72,0-12.117c-0.815-0.771-1.77-1.379-2.813-1.792
				c-1.027-0.438-2.13-0.67-3.246-0.683c-2.259,0.034-4.422,0.918-6.059,2.475c-3.3,3.365-3.3,8.752,0,12.117l1.279,1.025
				C5.239,452.345,5.757,452.604,6.301,452.792z"/>
			<path style="fill:#51A1FF;" d="M37.618,36.612c-3.3,3.365-3.3,8.752,0,12.117c3.365,3.3,8.752,3.3,12.117,0
				c3.3-3.365,3.3-8.752,0-12.117C46.313,33.453,41.039,33.453,37.618,36.612z"/>
			<path style="fill:#51A1FF;" d="M82.589,35.587c-0.476-0.324-0.993-0.583-1.538-0.771c-0.484-0.246-1.002-0.417-1.537-0.508
				c-1.663-0.348-3.393-0.171-4.95,0.508c-1.033,0.434-1.984,1.041-2.813,1.796c-3.3,3.365-3.3,8.752,0,12.117
				c0.83,0.752,1.781,1.358,2.813,1.792c1.027,0.438,2.13,0.67,3.246,0.683c0.571-0.016,1.141-0.073,1.704-0.171
				c0.535-0.095,1.053-0.268,1.537-0.513c0.544-0.187,1.062-0.447,1.538-0.771c0.425-0.338,0.85-0.679,1.279-1.021
				c0.341-0.429,0.683-0.854,1.021-1.367c0.34-0.435,0.601-0.925,0.771-1.45c0.245-0.485,0.418-1.003,0.512-1.538
				c0.098-0.563,0.155-1.133,0.171-1.704c-0.033-2.259-0.917-4.422-2.475-6.059C83.439,36.27,83.014,35.929,82.589,35.587z"/>
			<path style="fill:#51A1FF;" d="M119.793,39.424c-0.188-0.543-0.448-1.058-0.771-1.533c-0.312-0.448-0.653-0.876-1.021-1.279
				c-2.441-2.462-6.129-3.201-9.331-1.872c-3.202,1.329-5.281,4.464-5.261,7.931c0.014,3.45,2.096,6.556,5.282,7.879
				c3.187,1.323,6.856,0.606,9.31-1.82c0.366-0.405,0.707-0.833,1.021-1.279c0.324-0.476,0.583-0.993,0.771-1.538
				c0.245-0.485,0.418-1.003,0.512-1.538c0.098-0.563,0.155-1.133,0.171-1.704c-0.02-0.573-0.077-1.143-0.171-1.708
				C120.211,40.427,120.038,39.909,119.793,39.424z"/>
			<path style="fill:#51A1FF;" d="M316.743,34.137H197.276c-4.713,0-8.533,3.821-8.533,8.533s3.821,8.533,8.533,8.533h119.467
				c4.713,0,8.533-3.821,8.533-8.533S321.456,34.137,316.743,34.137z"/>
			<path style="fill:#51A1FF;" d="M470.343,34.137h-8.533c-4.713,0-8.533,3.821-8.533,8.533s3.82,8.533,8.533,8.533h8.533
				c4.713,0,8.533-3.821,8.533-8.533S475.056,34.137,470.343,34.137z"/>
			<path style="fill:#51A1FF;" d="M427.676,34.137h-8.533c-4.713,0-8.533,3.821-8.533,8.533s3.821,8.533,8.533,8.533h8.533
				c4.713,0,8.533-3.821,8.533-8.533S432.389,34.137,427.676,34.137z"/>
			<path style="fill:#51A1FF;" d="M77.81,110.937c-22.453,0-41.065,17.402-42.571,39.805c-1.506,22.403,14.609,42.14,36.86,45.145
				s43.024-11.75,47.515-33.749h31.462l-11.034,11.034c-2.176,2.151-3.033,5.303-2.247,8.26c0.786,2.957,3.096,5.267,6.053,6.053
				c2.957,0.786,6.109-0.071,8.26-2.247l23.1-23.1h30.6v17.067c0.009,9.422,7.645,17.057,17.067,17.067H359.41
				c9.422-0.009,17.057-7.645,17.067-17.067v-17.067h85.333v102.4h-158.6l11.034-11.034c2.178-2.151,3.037-5.304,2.251-8.262
				c-0.786-2.958-3.097-5.269-6.055-6.055c-2.958-0.786-6.111,0.073-8.262,2.251l-23.1,23.1H257.01V247.47
				c-0.009-9.422-7.645-17.057-17.067-17.067H103.41c-9.422,0.009-17.057,7.645-17.067,17.067v51.2
				c0.009,9.422,7.645,17.057,17.067,17.067h59.733v30.6l-11.034-11.034c-3.338-3.296-8.711-3.279-12.029,0.038
				c-3.317,3.317-3.334,8.691-0.038,12.029l23.1,23.1v13.533H129.01c-3.232-0.001-6.188,1.825-7.633,4.717l-34.133,68.267
				c-1.322,2.645-1.181,5.787,0.374,8.303c1.555,2.516,4.302,4.047,7.259,4.047h119.467c3.232,0.001,6.188-1.825,7.633-4.717
				l14.708-29.417h119.192l-11.034,11.034c-2.178,2.151-3.037,5.304-2.251,8.262s3.097,5.269,6.055,6.055
				c2.958,0.786,6.111-0.073,8.262-2.251l23.1-23.1h14.396c4.381,21.461,24.3,36.119,46.093,33.917
				c21.793-2.202,38.378-20.547,38.378-42.451c0-21.904-16.586-40.249-38.378-42.451c-21.793-2.202-41.712,12.456-46.093,33.917
				H380.01l-23.1-23.1c-3.338-3.296-8.711-3.28-12.029,0.038c-3.317,3.317-3.334,8.69-0.038,12.029l11.033,11.034H245.218
				l10.892-21.783c1.322-2.645,1.181-5.787-0.374-8.303s-4.302-4.047-7.259-4.047H180.21V370.47l23.1-23.1
				c3.296-3.338,3.28-8.711-0.038-12.029c-3.317-3.317-8.69-3.334-12.029-0.038l-11.034,11.033v-30.6h59.733
				c9.422-0.009,17.057-7.645,17.067-17.067v-17.067h22.067l23.1,23.1c3.338,3.296,8.711,3.28,12.029-0.038
				c3.317-3.317,3.334-8.69,0.038-12.029l-11.033-11.034h167.133c2.263,0.001,4.434-0.898,6.035-2.499
				c1.6-1.6,2.499-3.771,2.499-6.035V153.604c0.001-2.263-0.898-4.434-2.499-6.035c-1.6-1.6-3.771-2.499-6.035-2.499h-93.867
				v-17.067c-0.009-9.422-7.645-17.057-17.067-17.067H222.876c-9.422,0.009-17.057,7.645-17.067,17.067v17.067h-30.6l-23.1-23.1
				c-3.338-3.296-8.711-3.28-12.029,0.038c-3.317,3.317-3.334,8.69-0.038,12.029l11.033,11.034h-31.462
				C115.534,125.22,98.074,110.965,77.81,110.937z M436.21,401.07c14.138,0,25.6,11.462,25.6,25.6c0,14.138-11.462,25.6-25.6,25.6
				s-25.6-11.462-25.6-25.6C410.625,412.538,422.078,401.086,436.21,401.07z M209.068,452.27H108.685l25.6-51.2h100.383
				L209.068,452.27z M103.41,298.67v-51.2h136.533l0.006,25.569l-0.006,0.031l0.006,0.031l0.006,25.569H103.41z M222.876,128.004
				H359.41l0.006,25.569l-0.006,0.031l0.006,0.031l0.006,25.569H222.876V128.004z M77.81,179.204c-14.138,0-25.6-11.462-25.6-25.6
				c0-14.139,11.462-25.6,25.6-25.6s25.6,11.462,25.6,25.6C103.394,167.736,91.942,179.188,77.81,179.204z"/>
		</g>
	</g>
</g>
<g>
</g>
<g>
</g>
<g>
</g>
<g>
</g>
<g>
</g>
<g>
</g>
<g>
</g>
<g>
</g>
<g>
</g>
<g>
</g>
<g>
</g>
<g>
</g>
<g>
</g>
<g>
</g>
<g>
</g>
</svg>
